<?xml version="1.0" encoding="utf-8"?>
<!-- Generator: Adobe Illustrator 25.1.0, SVG Export Plug-In . SVG Version: 6.00 Build 0)  -->
<svg version="1.1" id="Calque_1" xmlns="http://www.w3.org/2000/svg" xmlns:xlink="http://www.w3.org/1999/xlink" x="0px" y="0px"
	 viewBox="0 0 21.7 26.9" style="enable-background:new 0 0 21.7 26.9;" xml:space="preserve">
<style type="text/css">
	.st0{fill:#CC5616;}
</style>
<g>
	<path class="st0" d="M20.3,8.6c0-1.4-1.1-2.6-2.5-2.6h-1.4l0,0c-0.2-3-2.8-5.4-5.8-5.2C7.8,1,5.6,3.2,5.4,6l0,0H4
		C2.6,6,1.5,7.2,1.5,8.6L0.7,23.4c0,0.8,0.2,1.5,0.8,2.1c0.5,0.6,1.3,0.9,2,0.9h14.9c0.8,0,1.5-0.3,2-0.9s0.8-1.3,0.8-2.1L20.3,8.6z
		 M7.3,5.9c0-2,1.6-3.6,3.6-3.6s3.6,1.6,3.6,3.6H7.3z M19,24.2c-0.2,0.2-0.4,0.3-0.7,0.3H3.5c-0.3,0-0.5-0.1-0.7-0.3
		c-0.2-0.2-0.3-0.4-0.3-0.7L3.3,8.6c0-0.4,0.2-0.7,0.6-0.8h13.9c0.3,0,0.6,0.3,0.6,0.8l0.8,14.9C19.3,23.8,19.2,24,19,24.2z"/>
</g>
</svg>
