<?xml version="1.0" encoding="utf-8"?>
<!-- Generator: Adobe Illustrator 25.1.0, SVG Export Plug-In . SVG Version: 6.00 Build 0)  -->
<svg version="1.1" id="Calque_1" xmlns="http://www.w3.org/2000/svg" xmlns:xlink="http://www.w3.org/1999/xlink" x="0px" y="0px"
	 viewBox="0 0 24 18.7" style="enable-background:new 0 0 24 18.7;" xml:space="preserve">
<style type="text/css">
	.st0{fill:#CC5616;}
</style>
<path class="st0" d="M23.6,8.9c0-0.1,0-0.1-0.1-0.2c0,0,0,0,0,0l-2-3.3c-0.3-0.5-0.9-0.9-1.5-0.9h-4V3.9C16,2.3,14.7,1,13.1,1H3.3
	C1.7,1,0.4,2.3,0.4,3.9v11.5C0.4,15.7,0.7,16,1,16c0,0,0,0,0,0h1.9c0.3,1.5,1.8,2.4,3.3,2.1C7.2,17.8,8,17,8.3,16h8.2
	c0.3,1.5,1.8,2.4,3.3,2.1c1-0.2,1.9-1.1,2.1-2.1H23c0.3,0,0.6-0.3,0.6-0.6l0,0L23.6,8.9C23.6,8.9,23.6,8.9,23.6,8.9z M7.1,15.4
	c0,0.8-0.7,1.5-1.5,1.5c-0.8,0-1.5-0.7-1.5-1.5c0-0.8,0.7-1.5,1.5-1.5C6.5,13.8,7.1,14.5,7.1,15.4L7.1,15.4L7.1,15.4z M14.8,5.1v9.7
	H8.3c-0.3-1.5-1.8-2.4-3.3-2.1c-1.1,0.2-1.9,1.1-2.1,2.1H1.6V3.9c0-0.9,0.8-1.7,1.7-1.7h9.8c0.9,0,1.7,0.8,1.7,1.7L14.8,5.1z
	 M16,5.7h4c0.2,0,0.4,0.1,0.5,0.3l1.4,2.4H16L16,5.7z M19.2,16.9c-0.9,0-1.6-0.7-1.6-1.6l0,0c0-0.9,0.7-1.6,1.6-1.6
	c0.9,0,1.6,0.7,1.6,1.6C20.8,16.2,20.1,16.9,19.2,16.9L19.2,16.9z M22.4,14.8h-0.5c-0.3-1.5-1.8-2.4-3.3-2.1
	c-1.1,0.2-1.9,1.1-2.1,2.1H16V9.6h6.4V14.8z M11.7,5c0.2,0.2,0.2,0.6,0,0.8c0,0,0,0,0,0l-4.4,4.4c-0.2,0.2-0.6,0.2-0.8,0
	c0,0,0,0,0,0L4.8,8.6C4.6,8.3,4.6,8,4.8,7.7s0.6-0.2,0.8,0L6.9,9L10.8,5C11.1,4.8,11.4,4.8,11.7,5z"/>
</svg>
