<?xml version="1.0" encoding="utf-8"?>
<!-- Generator: Adobe Illustrator 25.1.0, SVG Export Plug-In . SVG Version: 6.00 Build 0)  -->
<svg version="1.1" id="Calque_1" xmlns="http://www.w3.org/2000/svg" xmlns:xlink="http://www.w3.org/1999/xlink" x="0px" y="0px"
	 viewBox="0 0 492 495" style="enable-background:new 0 0 492 495;" xml:space="preserve">
<style type="text/css">
	.st0{fill:#CC5616;}
</style>
<g>
	<path class="st0" d="M476,470H257.6l47.1-314.1c21.5,32,43.2,64.1,81.8,63.4c31.5-0.5,62-7.1,93.3-20.1c5.1-2.1,7.5-8,5.4-13.1
		c-2.1-5.1-8-7.5-13.1-5.4c-29,12-57.1,18.1-86,18.6c-34.1,0.5-53.2-39.5-77.1-72.3c7.1-47.8,6.9-45.6,6.9-47c0-38.6-31.4-70-70-70
		s-70,31.4-70,70c0,1.2,0.2,1.7,0.8,6.1c-24.7,5.6-43.2,11-78.5,6.3C63.1,87.8,37,76.3,20.5,68C15.5,65.6,9.5,67.6,7,72.5
		C4.6,77.5,6.6,83.5,11.5,86c17.8,8.9,46,21.3,84.1,26.3c36.1,4.8,57.8-0.3,78.8-5.1c1.7-0.4,3.5-0.8,5.2-1.2L234.4,470H16
		c-5.5,0-10,4.5-10,10s4.5,10,10,10h460c5.5,0,10-4.5,10-10S481.5,470,476,470z M196,79.3C196.4,52,218.7,30,246,30s49.6,22,50,49.3
		l-4,27C281.7,95.7,270,87.1,256,83V70c0-5.5-4.5-10-10-10c-5.5,0-10,4.5-10,10v10.1c-15.6-0.6-28.3,0.4-39.5,2.1L196,79.3z
		 M236,100.1V120c0,5.5,4.5,10,10,10c5.5,0,10-4.5,10-10v-15.8c12.2,5.3,22.5,15.6,32.1,28L246,412.6l-46.6-310.5
		C209.9,100.5,221.6,99.6,236,100.1z"/>
</g>
</svg>
