<?xml version="1.0" encoding="utf-8"?>
<!-- Generator: Adobe Illustrator 25.1.0, SVG Export Plug-In . SVG Version: 6.00 Build 0)  -->
<svg version="1.1" id="Calque_1" xmlns="http://www.w3.org/2000/svg" xmlns:xlink="http://www.w3.org/1999/xlink" x="0px" y="0px"
	 viewBox="0 0 24 24.1" style="enable-background:new 0 0 24 24.1;" xml:space="preserve">
<style type="text/css">
	.st0{fill:#FFFFFF;}
</style>
<path class="st0" d="M20,0H4C1.8,0,0,1.8,0,4v16c0,2.2,1.8,4,4,4h16c2.2,0,4-1.8,4-4V4C24,1.8,22.2,0,20,0z M22,20c0,1.1-0.9,2-2,2
	H4c-1.1,0-2-0.9-2-2V4c0-1.1,0.9-2,2-2h16c1.1,0,2,0.9,2,2V20z"/>
<path class="st0" d="M12,6c-3.3,0-6,2.7-6,6s2.7,6,6,6s6-2.7,6-6S15.3,6,12,6z M12,16c-2.2,0-4-1.8-4-4s1.8-4,4-4s4,1.8,4,4
	S14.2,16,12,16z"/>
<circle class="st0" cx="18.5" cy="5.5" r="1.5"/>
</svg>
