<?xml version="1.0" encoding="utf-8"?>
<!-- Generator: Adobe Illustrator 25.1.0, SVG Export Plug-In . SVG Version: 6.00 Build 0)  -->
<svg version="1.1" id="Calque_1" xmlns="http://www.w3.org/2000/svg" xmlns:xlink="http://www.w3.org/1999/xlink" x="0px" y="0px"
	 viewBox="0 0 96 86" style="enable-background:new 0 0 96 86;" xml:space="preserve">
<style type="text/css">
	.st0{fill:#CC5616;}
</style>
<path class="st0" d="M88,5H8c-3.3,0-6,2.7-6,6v52c0,3.3,2.7,6,6,6h46v8c0,3.3,2.7,6,6,6h20c3.3,0,6-2.7,6-6v-8h2c3.3,0,6-2.7,6-6V11
	C94,7.7,91.3,5,88,5z M82,77c0,1.1-0.9,2-2,2H60c-1.1,0-2-0.9-2-2V54h24V77z M76,50H64v-7c0-3.3,2.7-6,6-6s6,2.7,6,6V50z M90,63
	c0,1.1-0.9,2-2,2h-2V52c0-1.1-0.9-2-2-2h-4v-7c0-5.5-4.5-10-10-10s-10,4.5-10,10v7h-4c-1.1,0-2,0.9-2,2v13H8c-1.1,0-2-0.9-2-2V11
	c0-1.1,0.9-2,2-2h80c1.1,0,2,0.9,2,2V63z"/>
<path class="st0" d="M33,43H18c-1.1,0-2,0.9-2,2s0.9,2,2,2h15c1.1,0,2-0.9,2-2S34.1,43,33,43z"/>
<path class="st0" d="M56,43H41c-1.1,0-2,0.9-2,2s0.9,2,2,2h15c1.1,0,2-0.9,2-2S57.1,43,56,43z"/>
<path class="st0" d="M70,63c-1.7,0-3,1.3-3,3s1.3,3,3,3s3-1.3,3-3S71.7,63,70,63z M70,67c-0.6,0-1-0.4-1-1s0.4-1,1-1s1,0.4,1,1
	S70.6,67,70,67z"/>
<path class="st0" d="M25,36c5,0,9-4,9-9s-4-9-9-9s-9,4-9,9S20,36,25,36z M26.1,31.9l3.8-3.8C29.4,30,28,31.4,26.1,31.9z M29.7,25.4
	l-6.3,6.3c-1.4-0.5-2.6-1.6-3.1-3l6.4-6.4C28.1,22.9,29.2,24,29.7,25.4z M24.1,22.1l-4,4C20.4,24.1,22,22.5,24.1,22.1z"/>
</svg>
